<svg width="524" height="258" xmlns="http://www.w3.org/2000/svg">
 <!-- Created with Method Draw - http://github.com/duopixel/Method-Draw/ -->
 <g>
  <title>background</title>
  <rect fill="#fff" id="canvas_background" height="260" width="526" y="-1" x="-1"/>
  <g display="none" overflow="visible" y="0" x="0" height="100%" width="100%" id="canvasGrid">
   <rect fill="url(#gridpattern)" stroke-width="0" y="0" x="0" height="100%" width="100%"/>
  </g>
 </g>
 <g>
  <title>Layer 1</title>
  <path stroke="#000" id="svg_1" d="m521.750031,259.220373l-105.313696,37.104981l0,-74.170446l105.313696,37.065465zm-76.466641,-182.778582l-47.978677,100.013532l-52.946116,-52.47648l100.924794,-47.537052zm-184.533375,-75.69179l37.445313,104.320713l-74.910575,0l37.465262,-104.320713zm-184.553324,75.69179l100.964693,47.537052l-52.966066,52.47648l-47.998627,-100.013532zm-76.446691,182.778582l105.333645,-37.065465l0,74.170446l-105.333645,-37.104981zm76.446691,182.778582l47.998627,-99.974017l52.966066,52.456722l-100.964693,47.517294l0,0zm184.553324,75.751063l-37.465262,-104.340471l74.910575,0l-37.445313,104.340471zm184.533375,-75.751063l-100.944743,-47.497537l52.946116,-52.456722l47.998627,99.954259zm-315.023408,-182.778582l0,0c0,-71.364851 58.432244,-129.235186 130.509983,-129.235186c72.057789,0 130.509983,57.870335 130.509983,129.235186c0,71.384609 -58.452193,129.254944 -130.509983,129.254944c-72.097688,0 -130.509983,-57.870335 -130.509983,-129.254944l0,0z" stroke-width="1.5" fill="#fce46a"/>
 </g>
</svg>